# MagicaVoxel @ Ephtracy

# group
o 

# material
mtllib TV.mtl
usemtl palette

# normals
vn -1 0 0
vn 1 0 0
vn 0 0 1
vn 0 0 -1
vn 0 -1 0
vn 0 1 0

# texcoords
vt 0.0175781 0.5
vt 0.236328 0.5
vt 0.248047 0.5
vt 0.279297 0.5
vt 0.431641 0.5

# verts
v -1 0.5 0.9
v -1 0.5 0.7
v -1 0.7 0.9
v -1 0.7 0.7
v -1 0.8 0.9
v -1 0.8 0.7
v -1 1 0.9
v -1 1 0.7
v -0.9 0 1
v -0.9 0 -0.7
v -0.9 0.1 0.9
v -0.9 0.1 0.7
v -0.9 0.2 0.5
v -0.9 0.2 -0.5
v -0.9 0.3 0.6
v -0.9 0.3 0.5
v -0.9 0.3 -0.5
v -0.9 0.3 -0.6
v -0.9 0.4 0.9
v -0.9 0.4 0.7
v -0.9 0.5 0.9
v -0.9 0.5 0.7
v -0.9 0.7 0.9
v -0.9 0.7 0.7
v -0.9 0.8 0.9
v -0.9 0.8 0.7
v -0.9 0.9 0.6
v -0.9 0.9 0.5
v -0.9 0.9 -0.5
v -0.9 0.9 -0.6
v -0.9 1 0.9
v -0.9 1 0.7
v -0.9 1 0.5
v -0.9 1 -0.5
v -0.9 1.1 1
v -0.9 1.1 -0.7
v -0.8 0.2 0.5
v -0.8 0.2 -0.5
v -0.8 0.3 0.6
v -0.8 0.3 0.5
v -0.8 0.3 -0.5
v -0.8 0.3 -0.6
v -0.8 0.9 0.6
v -0.8 0.9 0.5
v -0.8 0.9 -0.5
v -0.8 0.9 -0.6
v -0.8 1 0.5
v -0.8 1 -0.5
v 0 1 1
v 0 1 -0.7
v 0 1.1 1
v 0 1.1 -0.7
v 0.2 0.6 0.9
v 0.2 0.6 0.8
v 0.2 0.7 0.9
v 0.2 0.7 0.8
v 0.3 0.9 1
v 0.3 0.9 -0.7
v 0.3 1 1
v 0.3 1 -0.7
v 0.4 0.8 1
v 0.4 0.8 -0.7
v 0.4 0.9 1
v 0.4 0.9 -0.7
v 0.5 0 1
v 0.5 0 -0.7
v 0.5 0.6 0.9
v 0.5 0.6 0.8
v 0.5 0.6 0.7
v 0.5 0.6 0.6
v 0.5 0.7 0.9
v 0.5 0.7 0.8
v 0.5 0.7 0.7
v 0.5 0.7 0.6
v 0.5 0.8 1
v 0.5 0.8 -0.7
v 0.6 0.6 0.7
v 0.6 0.6 0.6
v 0.6 0.7 0.7
v 0.6 0.7 0.6
v -0.9 0 1
v -0.9 1.1 1
v 0 1 1
v 0 1.1 1
v 0.3 0.9 1
v 0.3 1 1
v 0.4 0.8 1
v 0.4 0.9 1
v 0.5 0 1
v 0.5 0.8 1
v -1 0.5 0.9
v -1 0.7 0.9
v -1 0.8 0.9
v -1 1 0.9
v -0.9 0.5 0.9
v -0.9 0.7 0.9
v -0.9 0.8 0.9
v -0.9 1 0.9
v 0.2 0.6 0.8
v 0.2 0.7 0.8
v 0.5 0.6 0.8
v 0.5 0.7 0.8
v 0.5 0.6 0.7
v 0.5 0.7 0.7
v 0.6 0.6 0.7
v 0.6 0.7 0.7
v -0.9 0.2 -0.5
v -0.9 0.3 -0.5
v -0.9 0.9 -0.5
v -0.9 1 -0.5
v -0.8 0.2 -0.5
v -0.8 0.3 -0.5
v -0.8 0.9 -0.5
v -0.8 1 -0.5
v -0.9 0.3 -0.6
v -0.9 0.9 -0.6
v -0.8 0.3 -0.6
v -0.8 0.9 -0.6
v 0.2 0.6 0.9
v 0.2 0.7 0.9
v 0.5 0.6 0.9
v 0.5 0.7 0.9
v -1 0.5 0.7
v -1 0.7 0.7
v -1 0.8 0.7
v -1 1 0.7
v -0.9 0.5 0.7
v -0.9 0.7 0.7
v -0.9 0.8 0.7
v -0.9 1 0.7
v -0.9 0.3 0.6
v -0.9 0.9 0.6
v -0.8 0.3 0.6
v -0.8 0.9 0.6
v 0.5 0.6 0.6
v 0.5 0.7 0.6
v 0.6 0.6 0.6
v 0.6 0.7 0.6
v -0.9 0.2 0.5
v -0.9 0.3 0.5
v -0.9 0.9 0.5
v -0.9 1 0.5
v -0.8 0.2 0.5
v -0.8 0.3 0.5
v -0.8 0.9 0.5
v -0.8 1 0.5
v -0.9 0 -0.7
v -0.9 1.1 -0.7
v 0 1 -0.7
v 0 1.1 -0.7
v 0.3 0.9 -0.7
v 0.3 1 -0.7
v 0.4 0.8 -0.7
v 0.4 0.9 -0.7
v 0.5 0 -0.7
v 0.5 0.8 -0.7
v -0.9 0 1
v 0.5 0 1
v -0.9 0 -0.7
v 0.5 0 -0.7
v -1 0.5 0.9
v -0.9 0.5 0.9
v -1 0.5 0.7
v -0.9 0.5 0.7
v 0.5 0.6 0.7
v 0.6 0.6 0.7
v 0.5 0.6 0.6
v 0.6 0.6 0.6
v 0.2 0.7 0.9
v 0.5 0.7 0.9
v 0.2 0.7 0.8
v 0.5 0.7 0.8
v -1 0.8 0.9
v -0.9 0.8 0.9
v -1 0.8 0.7
v -0.9 0.8 0.7
v -0.9 0.9 0.6
v -0.8 0.9 0.6
v -0.9 0.9 0.5
v -0.8 0.9 0.5
v -0.9 0.9 -0.5
v -0.8 0.9 -0.5
v -0.9 0.9 -0.6
v -0.8 0.9 -0.6
v -0.9 1 0.5
v -0.8 1 0.5
v -0.9 1 -0.5
v -0.8 1 -0.5
v -0.9 0.2 0.5
v -0.8 0.2 0.5
v -0.9 0.2 -0.5
v -0.8 0.2 -0.5
v -0.9 0.3 0.6
v -0.8 0.3 0.6
v -0.9 0.3 0.5
v -0.8 0.3 0.5
v -0.9 0.3 -0.5
v -0.8 0.3 -0.5
v -0.9 0.3 -0.6
v -0.8 0.3 -0.6
v 0.2 0.6 0.9
v 0.5 0.6 0.9
v 0.2 0.6 0.8
v 0.5 0.6 0.8
v -1 0.7 0.9
v -0.9 0.7 0.9
v -1 0.7 0.7
v -0.9 0.7 0.7
v 0.5 0.7 0.7
v 0.6 0.7 0.7
v 0.5 0.7 0.6
v 0.6 0.7 0.6
v 0.4 0.8 1
v 0.5 0.8 1
v 0.4 0.8 -0.7
v 0.5 0.8 -0.7
v 0.3 0.9 1
v 0.4 0.9 1
v 0.3 0.9 -0.7
v 0.4 0.9 -0.7
v 0 1 1
v 0.3 1 1
v -1 1 0.9
v -0.9 1 0.9
v -1 1 0.7
v -0.9 1 0.7
v 0 1 -0.7
v 0.3 1 -0.7
v -0.9 1.1 1
v 0 1.1 1
v -0.9 1.1 -0.7
v 0 1.1 -0.7

# faces
f 3/3/1 2/3/1 1/3/1
f 4/3/1 2/3/1 3/3/1
f 7/3/1 6/3/1 5/3/1
f 8/3/1 6/3/1 7/3/1
f 11/2/1 10/2/1 9/2/1
f 12/2/1 10/2/1 11/2/1
f 13/2/1 10/2/1 12/2/1
f 14/2/1 10/2/1 13/2/1
f 15/2/1 13/2/1 12/2/1
f 16/2/1 13/2/1 15/2/1
f 17/2/1 10/2/1 14/2/1
f 18/2/1 10/2/1 17/2/1
f 19/2/1 11/2/1 9/2/1
f 19/1/1 12/1/1 11/1/1
f 20/2/1 15/2/1 12/2/1
f 20/1/1 12/1/1 19/1/1
f 21/2/1 19/2/1 9/2/1
f 21/2/1 20/2/1 19/2/1
f 22/2/1 15/2/1 20/2/1
f 22/2/1 20/2/1 21/2/1
f 23/2/1 21/2/1 9/2/1
f 24/2/1 15/2/1 22/2/1
f 25/2/1 23/2/1 9/2/1
f 25/2/1 24/2/1 23/2/1
f 26/2/1 15/2/1 24/2/1
f 26/2/1 24/2/1 25/2/1
f 27/2/1 15/2/1 26/2/1
f 30/2/1 10/2/1 18/2/1
f 31/2/1 25/2/1 9/2/1
f 32/2/1 28/2/1 27/2/1
f 32/2/1 27/2/1 26/2/1
f 33/2/1 28/2/1 32/2/1
f 34/2/1 30/2/1 29/2/1
f 35/2/1 31/2/1 9/2/1
f 35/2/1 34/2/1 33/2/1
f 35/2/1 33/2/1 32/2/1
f 35/2/1 32/2/1 31/2/1
f 36/2/1 30/2/1 34/2/1
f 36/2/1 34/2/1 35/2/1
f 36/2/1 10/2/1 30/2/1
f 40/4/1 38/4/1 37/4/1
f 41/4/1 38/4/1 40/4/1
f 43/4/1 40/4/1 39/4/1
f 43/4/1 42/4/1 41/4/1
f 43/4/1 41/4/1 40/4/1
f 44/4/1 42/4/1 43/4/1
f 45/4/1 42/4/1 44/4/1
f 46/4/1 42/4/1 45/4/1
f 47/4/1 45/4/1 44/4/1
f 48/4/1 45/4/1 47/4/1
f 49/2/2 50/2/2 51/2/2
f 51/2/2 50/2/2 52/2/2
f 53/2/2 54/2/2 55/2/2
f 55/2/2 54/2/2 56/2/2
f 57/2/2 58/2/2 59/2/2
f 59/2/2 58/2/2 60/2/2
f 61/2/2 62/2/2 63/2/2
f 63/2/2 62/2/2 64/2/2
f 65/2/2 66/2/2 67/2/2
f 67/2/2 66/2/2 68/2/2
f 68/2/2 66/2/2 69/2/2
f 69/2/2 66/2/2 70/2/2
f 65/2/2 67/2/2 71/2/2
f 68/2/2 69/2/2 72/2/2
f 72/2/2 69/2/2 73/2/2
f 70/2/2 66/2/2 74/2/2
f 72/2/2 73/2/2 75/2/2
f 73/2/2 74/2/2 75/2/2
f 65/2/2 71/2/2 75/2/2
f 71/2/2 72/2/2 75/2/2
f 74/2/2 66/2/2 76/2/2
f 75/2/2 74/2/2 76/2/2
f 77/5/2 78/5/2 79/5/2
f 79/5/2 78/5/2 80/5/2
f 83/2/3 82/2/3 81/2/3
f 84/2/3 82/2/3 83/2/3
f 85/2/3 83/2/3 81/2/3
f 86/2/3 83/2/3 85/2/3
f 87/2/3 85/2/3 81/2/3
f 88/2/3 85/2/3 87/2/3
f 89/2/3 87/2/3 81/2/3
f 90/2/3 87/2/3 89/2/3
f 95/3/3 92/3/3 91/3/3
f 96/3/3 92/3/3 95/3/3
f 97/3/3 94/3/3 93/3/3
f 98/3/3 94/3/3 97/3/3
f 101/2/3 100/2/3 99/2/3
f 102/2/3 100/2/3 101/2/3
f 105/5/3 104/5/3 103/5/3
f 106/5/3 104/5/3 105/5/3
f 111/2/3 108/2/3 107/2/3
f 112/2/3 108/2/3 111/2/3
f 113/2/3 110/2/3 109/2/3
f 114/2/3 110/2/3 113/2/3
f 117/2/3 116/2/3 115/2/3
f 118/2/3 116/2/3 117/2/3
f 119/2/4 120/2/4 121/2/4
f 121/2/4 120/2/4 122/2/4
f 123/3/4 124/3/4 127/3/4
f 127/3/4 124/3/4 128/3/4
f 125/3/4 126/3/4 129/3/4
f 129/3/4 126/3/4 130/3/4
f 131/2/4 132/2/4 133/2/4
f 133/2/4 132/2/4 134/2/4
f 135/5/4 136/5/4 137/5/4
f 137/5/4 136/5/4 138/5/4
f 139/2/4 140/2/4 143/2/4
f 143/2/4 140/2/4 144/2/4
f 141/2/4 142/2/4 145/2/4
f 145/2/4 142/2/4 146/2/4
f 147/2/4 148/2/4 149/2/4
f 149/2/4 148/2/4 150/2/4
f 147/2/4 149/2/4 151/2/4
f 151/2/4 149/2/4 152/2/4
f 147/2/4 151/2/4 153/2/4
f 153/2/4 151/2/4 154/2/4
f 147/2/4 153/2/4 155/2/4
f 155/2/4 153/2/4 156/2/4
f 159/2/5 158/2/5 157/2/5
f 160/2/5 158/2/5 159/2/5
f 163/3/5 162/3/5 161/3/5
f 164/3/5 162/3/5 163/3/5
f 167/5/5 166/5/5 165/5/5
f 168/5/5 166/5/5 167/5/5
f 171/2/5 170/2/5 169/2/5
f 172/2/5 170/2/5 171/2/5
f 175/3/5 174/3/5 173/3/5
f 176/3/5 174/3/5 175/3/5
f 179/2/5 178/2/5 177/2/5
f 180/2/5 178/2/5 179/2/5
f 183/2/5 182/2/5 181/2/5
f 184/2/5 182/2/5 183/2/5
f 187/2/5 186/2/5 185/2/5
f 188/2/5 186/2/5 187/2/5
f 189/2/6 190/2/6 191/2/6
f 191/2/6 190/2/6 192/2/6
f 193/2/6 194/2/6 195/2/6
f 195/2/6 194/2/6 196/2/6
f 197/2/6 198/2/6 199/2/6
f 199/2/6 198/2/6 200/2/6
f 201/2/6 202/2/6 203/2/6
f 203/2/6 202/2/6 204/2/6
f 205/3/6 206/3/6 207/3/6
f 207/3/6 206/3/6 208/3/6
f 209/5/6 210/5/6 211/5/6
f 211/5/6 210/5/6 212/5/6
f 213/2/6 214/2/6 215/2/6
f 215/2/6 214/2/6 216/2/6
f 217/2/6 218/2/6 219/2/6
f 219/2/6 218/2/6 220/2/6
f 223/3/6 224/3/6 225/3/6
f 225/3/6 224/3/6 226/3/6
f 221/2/6 222/2/6 227/2/6
f 227/2/6 222/2/6 228/2/6
f 229/2/6 230/2/6 231/2/6
f 231/2/6 230/2/6 232/2/6
